<?xml version="1.0"?>
<svg version="1.1" xmlns="http://www.w3.org/2000/svg" width="300" height="100" style="border: dashed 2px #aaa"><path fill="#000000" d="M36.828125,57.546875q0,5.640625-3.2109375,8.640625t-9.2734375,3l-6.46875,0l0-22.84375l7.171875,0q5.59375,0,8.6875,2.953125t3.09375,8.25z M31.796875,57.671875q0-7.359375-6.5-7.359375l-2.578125,0l0,14.875l2.078125,0q7,0,7-7.515625z M57.74640625,69.1875l-1.65625-5.4375l-8.328125,0l-1.65625,5.4375l-5.21875,0l8.0625-22.9375l5.921875,0l8.09375,22.9375l-5.21875,0z M54.93390625,59.6875q-2.296875-7.390625-2.5859375-8.359375t-0.4140625-1.53125q-0.515625,2-2.953125,9.890625l5.953125,0z M81.5240625,62.84375q0,3.09375-2.2265625,4.875t-6.1953125,1.78125q-3.65625,0-6.46875-1.375l0-4.5q2.3125,1.03125,3.9140625,1.453125t2.9296875,0.421875q1.59375,0,2.4453125-0.609375t0.8515625-1.8125q0-0.671875-0.375-1.1953125t-1.1015625-1.0078125t-2.9609375-1.546875q-2.09375-0.984375-3.140625-1.890625t-1.671875-2.109375t-0.625-2.8125q0-3.03125,2.0546875-4.765625t5.6796875-1.734375q1.78125,0,3.3984375,0.421875t3.3828125,1.1875l-1.5625,3.765625q-1.828125-0.75-3.0234375-1.046875t-2.3515625-0.296875q-1.375,0-2.109375,0.640625t-0.734375,1.671875q0,0.640625,0.296875,1.1171875t0.9453125,0.921875t3.0703125,1.6015625q3.203125,1.53125,4.390625,3.0703125t1.1875,3.7734375z M106.58296875,69.1875l-4.828125,0l0-9.859375l-9.046875,0l0,9.859375l-4.84375,0l0-22.84375l4.84375,0l0,8.953125l9.046875,0l0-8.953125l4.828125,0l0,22.84375z M114.548125,46.34375l7.109375,0q4.859375,0,7.0546875,1.3828125t2.1953125,4.3984375q0,2.046875-0.9609375,3.359375t-2.5546875,1.578125l0,0.15625q2.171875,0.484375,3.1328125,1.8125t0.9609375,3.53125q0,3.125-2.2578125,4.875t-6.1328125,1.75l-8.546875,0l0-22.84375z M119.391875,55.390625l2.8125,0q1.96875,0,2.8515625-0.609375t0.8828125-2.015625q0-1.3125-0.9609375-1.8828125t-3.0390625-0.5703125l-2.546875,0l0,5.078125z M119.391875,59.234375l0,5.953125l3.15625,0q2,0,2.953125-0.765625t0.953125-2.34375q0-2.84375-4.0625-2.84375l-3,0z M158.98203125,57.734375q0,5.671875-2.8125,8.71875t-8.0625,3.046875t-8.0625-3.046875t-2.8125-8.75t2.8203125-8.7109375t8.0859375-3.0078125t8.0546875,3.03125t2.7890625,8.71875z M142.31015625,57.734375q0,3.828125,1.453125,5.765625t4.34375,1.9375q5.796875,0,5.796875-7.703125q0-7.71875-5.765625-7.71875q-2.890625,0-4.359375,1.9453125t-1.46875,5.7734375z M179.9003125,69.1875l-1.65625-5.4375l-8.328125,0l-1.65625,5.4375l-5.21875,0l8.0625-22.9375l5.921875,0l8.09375,22.9375l-5.21875,0z M177.0878125,59.6875q-2.296875-7.390625-2.5859375-8.359375t-0.4140625-1.53125q-0.515625,2-2.953125,9.890625l5.953125,0z M195.03734375,56.484375l1.5625,0q2.296875,0,3.390625-0.765625t1.09375-2.40625q0-1.625-1.1171875-2.3125t-3.4609375-0.6875l-1.46875,0l0,6.171875z M195.03734375,60.421875l0,8.765625l-4.84375,0l0-22.84375l6.65625,0q4.65625,0,6.890625,1.6953125t2.234375,5.1484375q0,2.015625-1.109375,3.5859375t-3.140625,2.4609375q5.15625,7.703125,6.71875,9.953125l-5.375,0l-5.453125-8.765625l-2.578125,0z M232.47125,57.546875q0,5.640625-3.2109375,8.640625t-9.2734375,3l-6.46875,0l0-22.84375l7.171875,0q5.59375,0,8.6875,2.953125t3.09375,8.25z M227.44,57.671875q0-7.359375-6.5-7.359375l-2.578125,0l0,14.875l2.078125,0q7,0,7-7.515625z"/><path fill="#" d=""/></svg>
